<svg version="1.1" id="Layer_1" xmlns="http://www.w3.org/2000/svg" xmlns:xlink="http://www.w3.org/1999/xlink" x="0px" y="0px"
	 width="100%" viewBox="0 0 174 193" enable-background="new 0 0 174 193" xml:space="preserve">
<path fill="#FEFEFE" opacity="1.000000" stroke="none" 
	d="
M175.000000,73.000000 
	C175.000000,113.666664 175.000000,153.833328 175.000000,194.000000 
	C117.000000,194.000000 59.000000,194.000000 1.000000,194.000000 
	C1.000000,129.666672 1.000000,65.333336 1.000000,1.000000 
	C59.000000,1.000000 117.000000,1.000000 175.000000,1.000000 
	C175.000000,24.833334 175.000000,48.666668 175.000000,73.000000 
M148.559235,128.650223 
	C150.658737,124.749107 152.758240,120.847992 155.214645,116.311760 
	C156.907303,109.907349 159.341797,103.597771 160.174576,97.083435 
	C166.507507,47.544785 120.925758,6.001399 72.202538,16.696751 
	C52.772514,20.961882 37.151085,31.225784 26.365622,47.880817 
	C15.327862,64.925453 11.154909,83.580376 15.668477,103.862930 
	C18.821180,118.030190 25.484560,130.140015 35.731834,140.257858 
	C37.993973,142.491440 39.236164,144.501358 38.207745,147.589417 
	C38.139297,147.794968 38.339821,148.090073 38.869633,149.870544 
	C39.682304,147.811981 40.182327,146.545395 40.682350,145.278793 
	C41.404228,145.463486 42.126110,145.648163 42.847992,145.832855 
	C43.742638,149.708801 44.635216,153.585220 45.539764,157.458847 
	C45.574802,157.608902 45.719433,157.736343 45.822056,157.867203 
	C52.722546,166.666656 59.623959,175.465378 67.328606,185.288330 
	C67.328606,181.957458 67.328606,180.039993 67.328606,177.617096 
	C72.606941,180.402847 77.545723,182.756638 82.210358,185.565674 
	C85.027016,187.261871 87.202766,187.108780 89.957825,185.462372 
	C94.591988,182.693085 99.488373,180.362595 104.613144,177.669525 
	C104.613144,180.334030 104.613144,182.417908 104.613144,185.324814 
	C111.405670,176.796967 117.922890,168.843353 124.130028,160.654694 
	C125.608231,158.704605 126.921692,155.914886 126.778854,153.606140 
	C126.517044,149.374527 131.163345,150.062134 132.015549,147.297791 
	C132.542511,147.684052 133.069473,148.070297 132.901550,147.947220 
	C134.281174,146.018127 135.540634,144.057083 136.999039,142.257233 
	C140.612305,137.798065 144.316528,133.412582 148.559235,128.650223 
z"/>
<path fill="#361106" opacity="1.000000" stroke="none" 
	d="
M147.984192,128.997498 
	C144.316528,133.412582 140.612305,137.798065 136.999039,142.257233 
	C135.540634,144.057083 134.281174,146.018127 132.901550,147.947220 
	C133.069473,148.070297 132.542511,147.684052 132.015549,147.297791 
	C131.163345,150.062134 126.517044,149.374527 126.778854,153.606140 
	C126.921692,155.914886 125.608231,158.704605 124.130028,160.654694 
	C117.922890,168.843353 111.405670,176.796967 104.613144,185.324814 
	C104.613144,182.417908 104.613144,180.334030 104.613144,177.669525 
	C99.488373,180.362595 94.591988,182.693085 89.957825,185.462372 
	C87.202766,187.108780 85.027016,187.261871 82.210358,185.565674 
	C77.545723,182.756638 72.606941,180.402847 67.328606,177.617096 
	C67.328606,180.039993 67.328606,181.957458 67.328606,185.288330 
	C59.623959,175.465378 52.722546,166.666656 45.822056,157.867203 
	C45.719433,157.736343 45.574802,157.608902 45.539764,157.458847 
	C44.635216,153.585220 43.742638,149.708801 42.847992,145.832855 
	C42.126110,145.648163 41.404228,145.463486 40.682350,145.278793 
	C40.182327,146.545395 39.682304,147.811981 38.869633,149.870544 
	C38.339821,148.090073 38.139297,147.794968 38.207745,147.589417 
	C39.236164,144.501358 37.993973,142.491440 35.731834,140.257858 
	C25.484560,130.140015 18.821180,118.030190 15.668477,103.862930 
	C11.154909,83.580376 15.327862,64.925453 26.365622,47.880817 
	C37.151085,31.225784 52.772514,20.961882 72.202538,16.696751 
	C120.925758,6.001399 166.507507,47.544785 160.174576,97.083435 
	C159.341797,103.597771 156.907303,109.907349 154.808456,116.411568 
	C153.663010,115.665482 152.923737,114.819595 152.227234,113.630882 
	C152.334625,112.518440 152.399261,111.748825 152.463898,110.979202 
	C148.602798,118.152794 143.591232,122.344635 133.659988,119.038818 
	C136.197083,122.272362 137.657516,124.133705 138.869629,126.385666 
	C136.221130,125.877968 133.820984,124.979652 130.951248,123.905571 
	C131.689667,129.527695 132.364761,134.667862 133.230530,141.259689 
	C137.108551,136.582489 140.202286,132.851212 143.517365,129.088745 
	C143.983276,128.873657 144.257538,128.764175 144.977386,128.849777 
	C146.256882,128.979446 147.120544,128.988480 147.984192,128.997498 
M51.801136,59.949955 
	C55.131977,60.779297 58.462822,61.608635 63.199982,62.788128 
	C59.170876,59.833435 56.225288,57.673325 52.955421,55.275410 
	C51.825134,56.981575 51.024101,58.190731 49.750065,59.788383 
	C49.617455,60.141567 49.484844,60.494755 49.352234,60.847942 
	C49.943428,60.609798 50.534626,60.371651 51.801136,59.949955 
M37.904079,108.752159 
	C39.530148,111.193314 41.156216,113.634468 43.085564,116.722198 
	C52.497055,124.264946 67.570801,122.227516 77.083900,111.947975 
	C81.268318,111.021652 85.452728,110.095322 90.082207,109.701317 
	C92.926529,112.036812 95.770859,114.372307 99.009506,117.253792 
	C106.276306,121.773582 114.249214,122.281624 121.990143,119.683784 
	C125.256729,118.587524 127.595093,114.725372 130.885849,111.649582 
	C131.985184,108.123116 133.084518,104.596649 134.829178,100.679588 
	C135.072449,98.450500 135.315720,96.221420 135.835693,93.196075 
	C135.841553,91.796936 135.847412,90.397804 135.993744,88.173302 
	C131.343109,87.081543 126.692474,85.989784 121.666031,84.224495 
	C116.112122,83.463615 110.558212,82.702736 104.146591,81.728310 
	C102.074219,81.487976 100.007309,81.111992 97.928627,81.028297 
	C77.320259,80.198570 56.907463,81.568016 36.898552,86.881325 
	C35.996132,87.120956 35.508751,88.923561 34.545666,90.476662 
	C34.684013,90.987778 34.822361,91.498901 34.810925,92.676025 
	C34.907139,93.116356 35.003353,93.556694 34.959824,94.839676 
	C35.390701,97.554512 35.821583,100.269356 36.195259,103.666954 
	C36.745556,105.124268 37.295853,106.581581 37.904079,108.752159 
M33.206257,126.294991 
	C33.100311,126.161903 32.994370,126.028824 33.155548,125.229492 
	C34.285137,123.952202 35.414730,122.674919 36.544319,121.397629 
	C36.261780,120.854515 35.979240,120.311401 35.696697,119.768288 
	C32.970699,120.562424 30.244696,121.356560 26.349237,122.491379 
	C30.981836,128.300247 34.766289,133.045593 39.391216,138.844833 
	C39.998306,132.993088 40.432755,128.805420 40.925724,124.053650 
	C38.035248,125.093903 35.740440,125.919785 33.206257,126.294991 
M74.059235,20.374262 
	C35.232834,28.382969 15.505487,65.015915 18.588472,90.236649 
	C20.915991,89.671806 23.291927,89.095207 26.157520,88.399788 
	C26.509237,86.345001 26.951147,83.763306 27.462698,80.774757 
	C33.936916,81.198624 35.140404,76.403168 36.475563,71.448059 
	C37.859993,66.310127 39.484158,61.216988 41.381077,56.248417 
	C41.989243,54.655460 43.604004,52.678242 45.095474,52.332764 
	C49.891769,51.221783 52.393379,48.030590 54.111210,43.921291 
	C57.317554,36.251270 61.948761,30.504484 71.218758,30.471605 
	C70.352303,30.170012 69.485847,29.868418 68.619392,29.566824 
	C74.339729,27.970358 80.091667,27.054333 85.835052,27.105171 
	C91.696564,27.157055 97.549667,28.158699 103.406456,28.744535 
	C103.376038,29.050438 103.345612,29.356342 103.315193,29.662245 
	C102.509476,29.941805 101.703751,30.221365 100.898026,30.500925 
	C109.496292,30.903324 114.635345,35.522305 117.495827,43.257893 
	C118.122307,44.952087 119.130241,46.544121 120.180008,48.029491 
	C120.903969,49.053852 121.914864,50.445183 122.947929,50.588535 
	C129.475510,51.494331 131.202484,56.272285 132.560486,61.623280 
	C133.539719,65.481804 134.766296,69.286781 136.072372,73.049751 
	C136.872604,75.355354 137.656387,79.152893 139.095673,79.486778 
	C144.599030,80.763504 144.321655,85.668205 146.569870,89.428963 
	C151.673676,86.503296 152.777054,92.257927 155.799774,94.023361 
	C156.078979,93.817627 156.290604,93.744385 156.333206,93.615356 
	C156.481903,93.164902 156.652573,92.698723 156.673126,92.232269 
	C157.579803,71.655495 150.997162,53.827541 136.281952,39.419304 
	C119.185280,22.679258 98.538460,16.458817 74.059235,20.374262 
M57.768948,128.269821 
	C53.149776,128.431992 48.705025,134.386612 50.527782,138.975510 
	C54.003517,147.725845 58.125633,156.219421 62.298325,165.531311 
	C78.246002,157.448486 94.000519,157.682205 109.618675,165.387238 
	C113.132141,157.655609 115.981339,150.730865 119.400642,144.100113 
	C121.547638,139.936646 121.626328,136.201340 120.246391,131.792267 
	C119.067162,128.024490 117.288681,127.533386 113.708534,128.895630 
	C119.414032,140.328995 110.302757,148.889420 108.450356,160.098755 
	C93.281334,154.296768 78.472282,154.732834 64.070221,159.621338 
	C55.343456,138.976898 55.343456,138.976898 57.768948,128.269821 
M69.560432,127.032448 
	C68.438202,127.481628 67.315964,127.930809 66.454384,128.275665 
	C67.432671,131.730499 68.291389,134.763107 69.363358,138.548767 
	C70.175880,135.646011 70.735413,133.647064 70.973816,132.795364 
	C80.634384,131.734512 89.985512,129.165588 98.939980,133.403366 
	C99.151611,133.503525 100.021973,132.211792 100.664001,131.479233 
	C101.291527,133.791565 101.850113,135.849869 102.732437,139.101089 
	C103.693222,134.698029 104.409576,131.415176 105.039680,128.527542 
	C93.265648,122.924644 81.894478,121.782974 69.560432,127.032448 
M70.555679,153.891434 
	C80.893135,153.515945 91.230583,153.140442 101.892990,152.753143 
	C101.892990,150.825897 101.892990,147.997314 101.892990,144.345154 
	C100.486351,146.292511 99.569672,147.561554 98.572845,148.941559 
	C98.094429,147.894348 97.704948,147.041809 97.621025,146.858093 
	C90.348801,146.858093 83.527672,146.802002 76.709160,146.910324 
	C75.496902,146.929596 74.295494,147.631927 72.823936,148.103882 
	C72.221794,147.347351 71.287727,146.173813 69.989273,144.542435 
	C69.989273,147.926300 69.989273,150.557220 70.555679,153.891434 
M60.822872,67.656235 
	C58.070446,66.667267 55.394505,62.795212 52.513397,67.540337 
	C50.920670,70.163521 49.170811,72.691292 46.784435,76.345116 
	C55.461388,75.269470 62.425175,74.406204 70.601418,73.392632 
	C66.994179,71.253769 64.237068,69.618973 60.822872,67.656235 
M113.157616,66.662331 
	C109.694618,68.625122 106.231613,70.587914 102.768608,72.550705 
	C102.918747,72.897423 103.068886,73.244148 103.219017,73.590866 
	C110.026627,74.451988 116.834229,75.313118 124.840439,76.325859 
	C122.573608,72.662186 120.845871,69.904411 119.153946,67.124840 
	C117.685837,64.712967 115.867920,64.685593 113.157616,66.662331 
M110.102928,61.718472 
	C111.472855,61.549942 112.857506,61.457542 114.209465,61.196098 
	C116.592270,60.735310 118.955124,60.171349 121.395668,59.635357 
	C120.906967,58.785904 119.971138,57.159256 119.016663,55.500206 
	C115.763817,57.604790 113.020294,59.379841 110.102928,61.718472 
z"/>
<path fill="#503128" opacity="1.000000" stroke="none" 
	d="
M152.184479,113.973701 
	C152.923737,114.819595 153.663010,115.665482 154.630005,116.729126 
	C152.758240,120.847992 150.658737,124.749107 148.271713,128.823853 
	C147.120544,128.988480 146.256882,128.979446 145.035980,128.494247 
	C147.180634,123.336617 149.682556,118.655159 152.184479,113.973701 
z"/>
<path fill="#FAF9F9" opacity="1.000000" stroke="none" 
	d="
M74.479271,20.294514 
	C98.538460,16.458817 119.185280,22.679258 136.281952,39.419304 
	C150.997162,53.827541 157.579803,71.655495 156.673126,92.232269 
	C156.652573,92.698723 156.481903,93.164902 156.333206,93.615356 
	C156.290604,93.744385 156.078979,93.817627 155.799774,94.023361 
	C152.777054,92.257927 151.673676,86.503296 146.569870,89.428963 
	C144.321655,85.668205 144.599030,80.763504 139.095673,79.486778 
	C137.656387,79.152893 136.872604,75.355354 136.072372,73.049751 
	C134.766296,69.286781 133.539719,65.481804 132.560486,61.623280 
	C131.202484,56.272285 129.475510,51.494331 122.947929,50.588535 
	C121.914864,50.445183 120.903969,49.053852 120.180008,48.029491 
	C119.130241,46.544121 118.122307,44.952087 117.495827,43.257893 
	C114.635345,35.522305 109.496292,30.903324 100.898026,30.500925 
	C101.703751,30.221365 102.509476,29.941805 103.315193,29.662245 
	C103.345612,29.356342 103.376038,29.050438 103.406456,28.744535 
	C97.549667,28.158699 91.696564,27.157055 85.835052,27.105171 
	C80.091667,27.054333 74.339729,27.970358 68.619392,29.566824 
	C69.485847,29.868418 70.352303,30.170012 71.218758,30.471605 
	C61.948761,30.504484 57.317554,36.251270 54.111210,43.921291 
	C52.393379,48.030590 49.891769,51.221783 45.095474,52.332764 
	C43.604004,52.678242 41.989243,54.655460 41.381077,56.248417 
	C39.484158,61.216988 37.859993,66.310127 36.475563,71.448059 
	C35.140404,76.403168 33.936916,81.198624 27.462698,80.774757 
	C26.951147,83.763306 26.509237,86.345001 26.157520,88.399788 
	C23.291927,89.095207 20.915991,89.671806 18.588472,90.236649 
	C15.505487,65.015915 35.232834,28.382969 74.479271,20.294514 
z"/>
<path fill="#B9B3BA" opacity="1.000000" stroke="none" 
	d="
M58.107315,128.400787 
	C55.343456,138.976898 55.343456,138.976898 64.070221,159.621338 
	C78.472282,154.732834 93.281334,154.296768 108.450356,160.098755 
	C110.302757,148.889420 119.414032,140.328995 113.708534,128.895630 
	C117.288681,127.533386 119.067162,128.024490 120.246391,131.792267 
	C121.626328,136.201340 121.547638,139.936646 119.400642,144.100113 
	C115.981339,150.730865 113.132141,157.655609 109.618675,165.387238 
	C94.000519,157.682205 78.246002,157.448486 62.298325,165.531311 
	C58.125633,156.219421 54.003517,147.725845 50.527782,138.975510 
	C48.705025,134.386612 53.149776,128.431992 58.107315,128.400787 
z"/>
<path fill="#FCBB1C" opacity="1.000000" stroke="none" 
	d="
M34.828056,89.998177 
	C35.508751,88.923561 35.996132,87.120956 36.898552,86.881325 
	C56.907463,81.568016 77.320259,80.198570 97.928627,81.028297 
	C100.007309,81.111992 102.074219,81.487976 104.498306,82.220612 
	C104.530380,83.070160 104.244217,83.701241 103.886261,83.744987 
	C91.996063,85.198135 80.080795,86.461617 68.214012,88.081291 
	C64.629662,88.570511 60.243561,87.181610 57.405327,91.256752 
	C54.353043,91.729042 51.685123,92.363991 48.578850,93.000000 
	C43.793526,93.333046 39.446545,93.665031 35.099567,93.997025 
	C35.003353,93.556694 34.907139,93.116356 35.098854,92.227173 
	C35.200539,91.184937 35.014297,90.591560 34.828056,89.998177 
z"/>
<path fill="#FEB428" opacity="1.000000" stroke="none" 
	d="
M122.041840,84.898026 
	C126.692474,85.989784 131.343109,87.081543 135.486649,88.586182 
	C130.318268,89.667618 125.656975,90.336174 120.598083,91.001770 
	C118.438713,91.241722 116.676941,91.484642 114.670853,91.648491 
	C114.067459,91.316269 113.708366,91.063118 113.349281,90.809959 
	C113.209991,91.537338 113.070702,92.264717 112.491035,92.994629 
	C96.865364,94.717003 81.680077,96.436852 66.316895,97.862915 
	C63.855186,97.444069 61.571358,97.319031 59.013931,97.114273 
	C58.551758,97.011536 58.363182,96.988510 58.148968,96.568138 
	C58.104198,95.113678 58.085060,94.056564 58.515594,92.999435 
	C61.285885,92.946129 63.625187,93.063423 65.924072,92.811684 
	C80.158379,91.252876 94.399223,89.733810 108.602753,87.925583 
	C113.137428,87.348274 117.565170,85.930977 122.041840,84.898026 
z"/>
<path fill="#EDEAE9" opacity="1.000000" stroke="none" 
	d="
M69.934944,126.924004 
	C81.894478,121.782974 93.265648,122.924644 105.039680,128.527542 
	C104.409576,131.415176 103.693222,134.698029 102.732437,139.101089 
	C101.850113,135.849869 101.291527,133.791565 100.664001,131.479233 
	C100.021973,132.211792 99.151611,133.503525 98.939980,133.403366 
	C89.985512,129.165588 80.634384,131.734512 70.973816,132.795364 
	C70.735413,133.647064 70.175880,135.646011 69.363358,138.548767 
	C68.291389,134.763107 67.432671,131.730499 66.454384,128.275665 
	C67.315964,127.930809 68.438202,127.481628 69.934944,126.924004 
z"/>
<path fill="#FCA438" opacity="1.000000" stroke="none" 
	d="
M89.637146,109.168999 
	C85.452728,110.095322 81.268318,111.021652 76.388161,111.923401 
	C71.075035,111.913147 66.457657,111.927475 61.920242,111.586487 
	C61.826305,110.042435 61.652390,108.853706 61.635658,107.220474 
	C61.853676,106.153099 61.914516,105.530220 62.312256,104.788353 
	C64.054985,104.429451 65.460823,104.189545 67.328842,103.964127 
	C70.277184,103.907684 72.776192,103.973473 75.247231,103.741425 
	C84.435249,102.878609 93.614075,101.917847 102.850723,101.366333 
	C103.247673,103.165863 103.590240,104.592918 103.534836,106.067123 
	C98.636955,107.132523 94.137054,108.150757 89.637146,109.168999 
z"/>
<path fill="#FEB822" opacity="1.000000" stroke="none" 
	d="
M121.853935,84.561264 
	C117.565170,85.930977 113.137428,87.348274 108.602753,87.925583 
	C94.399223,89.733810 80.158379,91.252876 65.924072,92.811684 
	C63.625187,93.063423 61.285885,92.946129 58.383156,92.755821 
	C57.797256,92.147949 57.793472,91.783676 57.789688,91.419411 
	C60.243561,87.181610 64.629662,88.570511 68.214012,88.081291 
	C80.080795,86.461617 91.996063,85.198135 103.886261,83.744987 
	C104.244217,83.701241 104.530380,83.070160 104.927162,82.327393 
	C110.558212,82.702736 116.112122,83.463615 121.853935,84.561264 
z"/>
<path fill="#F79841" opacity="1.000000" stroke="none" 
	d="
M61.840271,111.941803 
	C66.457657,111.927475 71.075035,111.913147 76.069153,112.055954 
	C67.570801,122.227516 52.497055,124.264946 43.351669,116.336365 
	C46.967964,114.636368 50.318150,113.322205 53.921486,112.320389 
	C56.729847,112.402420 59.285061,112.172112 61.840271,111.941803 
z"/>
<path fill="#F3F1F1" opacity="1.000000" stroke="none" 
	d="
M70.272476,153.539795 
	C69.989273,150.557220 69.989273,147.926300 69.989273,144.542435 
	C71.287727,146.173813 72.221794,147.347351 72.823936,148.103882 
	C74.295494,147.631927 75.496902,146.929596 76.709160,146.910324 
	C83.527672,146.802002 90.348801,146.858093 97.621025,146.858093 
	C97.704948,147.041809 98.094429,147.894348 98.572845,148.941559 
	C99.569672,147.561554 100.486351,146.292511 101.892990,144.345154 
	C101.892990,147.997314 101.892990,150.825897 101.892990,152.753143 
	C91.230583,153.140442 80.893135,153.515945 70.272476,153.539795 
z"/>
<path fill="#F59048" opacity="1.000000" stroke="none" 
	d="
M130.355377,112.120453 
	C127.595093,114.725372 125.256729,118.587524 121.990143,119.683784 
	C114.249214,122.281624 106.276306,121.773582 99.052460,116.606201 
	C103.400330,114.971786 107.705238,113.984955 112.281647,113.289726 
	C115.446266,113.619041 118.729591,115.780212 121.393753,112.030296 
	C124.690865,112.052406 127.523117,112.086433 130.355377,112.120453 
z"/>
<path fill="#FD9E40" opacity="1.000000" stroke="none" 
	d="
M112.010147,112.998123 
	C107.705238,113.984955 103.400330,114.971786 98.855301,116.333206 
	C95.770859,114.372307 92.926529,112.036812 89.859680,109.435158 
	C94.137054,108.150757 98.636955,107.132523 103.818466,106.068588 
	C104.683617,105.977921 104.867180,105.932953 105.420586,105.931839 
	C106.799232,105.386009 107.808029,104.796310 109.175133,104.155579 
	C111.025887,105.075928 112.518333,106.047310 114.122437,107.309647 
	C113.492775,109.399765 112.751465,111.198944 112.010147,112.998123 
z"/>
<path fill="#F9A532" opacity="1.000000" stroke="none" 
	d="
M114.915176,91.727562 
	C116.676941,91.484642 118.438713,91.241722 120.603020,91.420624 
	C122.084969,92.893745 123.146324,94.815323 124.247078,94.838158 
	C128.010254,94.916237 131.787262,94.327003 135.558990,93.992332 
	C135.315720,96.221420 135.072449,98.450500 134.119766,100.855240 
	C131.287064,100.855415 129.163773,100.679939 126.591522,100.524414 
	C125.271431,100.684235 124.400314,100.824104 123.219391,100.751877 
	C118.599075,100.690819 114.288582,100.841850 109.985733,100.744179 
	C109.993378,100.495476 110.006348,99.997910 110.316063,99.862747 
	C111.748253,98.472519 112.870735,97.217453 114.149384,95.634178 
	C114.508759,94.113167 114.711967,92.920364 114.915176,91.727562 
z"/>
<path fill="#BBB6BE" opacity="1.000000" stroke="none" 
	d="
M61.151413,67.820206 
	C64.237068,69.618973 66.994179,71.253769 70.601418,73.392632 
	C62.425175,74.406204 55.461388,75.269470 46.784435,76.345116 
	C49.170811,72.691292 50.920670,70.163521 52.513397,67.540337 
	C55.394505,62.795212 58.070446,66.667267 61.151413,67.820206 
z"/>
<path fill="#BAB5BD" opacity="1.000000" stroke="none" 
	d="
M113.466217,66.459610 
	C115.867920,64.685593 117.685837,64.712967 119.153946,67.124840 
	C120.845871,69.904411 122.573608,72.662186 124.840439,76.325859 
	C116.834229,75.313118 110.026627,74.451988 103.219017,73.590866 
	C103.068886,73.244148 102.918747,72.897423 102.768608,72.550705 
	C106.231613,70.587914 109.694618,68.625122 113.466217,66.459610 
z"/>
<path fill="#FD9E40" opacity="1.000000" stroke="none" 
	d="
M127.040489,100.504463 
	C129.163773,100.679939 131.287064,100.855415 133.797104,101.050529 
	C133.084518,104.596649 131.985184,108.123116 130.620605,111.885017 
	C127.523117,112.086433 124.690865,112.052406 121.074547,111.952316 
	C119.187164,110.260681 118.083839,108.635101 117.320267,106.973755 
	C119.606201,105.970535 121.552376,105.003082 123.979927,104.207916 
	C127.401733,104.472931 127.744736,102.837151 127.040489,100.504463 
z"/>
<path fill="#F8AF26" opacity="1.000000" stroke="none" 
	d="
M35.029694,94.418350 
	C39.446545,93.665031 43.793526,93.333046 48.696770,93.376251 
	C49.373146,95.765930 49.493256,97.780411 49.229843,99.757103 
	C46.755043,100.082764 43.790703,99.176544 43.638916,103.000229 
	C40.884342,102.996078 38.568405,102.990135 36.252464,102.984192 
	C35.821583,100.269356 35.390701,97.554512 35.029694,94.418350 
z"/>
<path fill="#EFECEB" opacity="1.000000" stroke="none" 
	d="
M33.445633,126.745667 
	C35.740440,125.919785 38.035248,125.093903 40.925724,124.053650 
	C40.432755,128.805420 39.998306,132.993088 39.391216,138.844833 
	C34.766289,133.045593 30.981836,128.300247 26.349237,122.491379 
	C30.244696,121.356560 32.970699,120.562424 35.696697,119.768288 
	C35.979240,120.311401 36.261780,120.854515 36.544319,121.397629 
	C35.414730,122.674919 34.285137,123.952202 32.763962,125.643112 
	C32.730125,126.286377 33.087879,126.516022 33.445633,126.745667 
z"/>
<path fill="#F5F4F3" opacity="1.000000" stroke="none" 
	d="
M143.296021,129.119934 
	C140.202286,132.851212 137.108551,136.582489 133.230530,141.259689 
	C132.364761,134.667862 131.689667,129.527695 130.951248,123.905571 
	C133.820984,124.979652 136.221130,125.877968 138.833298,126.353485 
	C139.045319,125.930679 138.947418,125.938194 138.819702,126.260666 
	C139.119537,126.699219 139.547119,126.815292 140.129974,127.247284 
	C141.288864,128.082123 142.292435,128.601028 143.296021,129.119934 
z"/>
<path fill="#F1EFEE" opacity="1.000000" stroke="none" 
	d="
M143.517365,129.088745 
	C142.292435,128.601028 141.288864,128.082123 140.103790,126.965393 
	C139.597351,126.224442 139.272385,126.081322 138.947418,125.938194 
	C138.947418,125.938194 139.045319,125.930679 139.081635,125.962860 
	C137.657516,124.133705 136.197083,122.272362 133.659988,119.038818 
	C143.591232,122.344635 148.602798,118.152794 152.463898,110.979202 
	C152.399261,111.748825 152.334625,112.518440 152.227234,113.630882 
	C149.682556,118.655159 147.180634,123.336617 144.620117,128.373611 
	C144.257538,128.764175 143.983276,128.873657 143.517365,129.088745 
z"/>
<path fill="#FBA23A" opacity="1.000000" stroke="none" 
	d="
M53.668339,112.008041 
	C50.318150,113.322205 46.967964,114.636368 43.200031,116.013077 
	C41.156216,113.634468 39.530148,111.193314 38.278286,108.378830 
	C40.745197,107.672180 42.837902,107.338875 45.140495,107.321564 
	C47.525173,107.401062 49.699959,107.164574 52.181679,106.954224 
	C52.693665,106.991684 52.898716,107.002998 53.145153,107.380180 
	C53.347141,109.166718 53.507740,110.587379 53.668339,112.008041 
z"/>
<path fill="#FEB02B" opacity="1.000000" stroke="none" 
	d="
M135.697342,93.594208 
	C131.787262,94.327003 128.010254,94.916237 124.247078,94.838158 
	C123.146324,94.815323 122.084969,92.893745 121.000626,91.423599 
	C125.656975,90.336174 130.318268,89.667618 135.416412,88.998863 
	C135.847412,90.397804 135.841553,91.796936 135.697342,93.594208 
z"/>
<path fill="#F3A230" opacity="1.000000" stroke="none" 
	d="
M44.930607,107.005569 
	C42.837902,107.338875 40.745197,107.672180 38.249321,108.022194 
	C37.295853,106.581581 36.745556,105.124268 36.223862,103.325577 
	C38.568405,102.990135 40.884342,102.996078 43.803356,103.306595 
	C44.581154,104.742630 44.755878,105.874100 44.930607,107.005569 
z"/>
<path fill="#EAE6E5" opacity="1.000000" stroke="none" 
	d="
M110.189850,61.436684 
	C113.020294,59.379841 115.763817,57.604790 119.016663,55.500206 
	C119.971138,57.159256 120.906967,58.785904 121.395668,59.635357 
	C118.955124,60.171349 116.592270,60.735310 114.209465,61.196098 
	C112.857506,61.457542 111.472855,61.549942 110.189850,61.436684 
z"/>
<path fill="#E3DEDD" opacity="1.000000" stroke="none" 
	d="
M50.223068,59.399887 
	C51.024101,58.190731 51.825134,56.981575 52.955421,55.275410 
	C56.225288,57.673325 59.170876,59.833435 63.199982,62.788128 
	C58.462822,61.608635 55.131977,60.779297 51.245667,59.848637 
	C50.534485,59.631512 50.378777,59.515701 50.223068,59.399887 
z"/>
<path fill="#F8AF26" opacity="1.000000" stroke="none" 
	d="
M34.686859,90.237419 
	C35.014297,90.591560 35.200539,91.184937 35.173744,91.894165 
	C34.822361,91.498901 34.684013,90.987778 34.686859,90.237419 
z"/>
<path fill="#E3DEDD" opacity="1.000000" stroke="none" 
	d="
M50.908005,59.940414 
	C50.534626,60.371651 49.943428,60.609798 49.352234,60.847942 
	C49.484844,60.494755 49.617455,60.141567 49.986565,59.594135 
	C50.378777,59.515701 50.534485,59.631512 50.908005,59.940414 
z"/>
<path fill="#411903" opacity="1.000000" stroke="none" 
	d="
M49.613369,99.794899 
	C49.493256,97.780411 49.373146,95.765930 49.135117,93.375191 
	C51.685123,92.363991 54.353043,91.729042 57.405327,91.256752 
	C57.793472,91.783676 57.797256,92.147949 57.933479,92.755829 
	C58.085060,94.056564 58.104198,95.113678 58.001972,96.813492 
	C57.910801,97.644447 57.940994,97.832710 57.986481,98.010544 
	C58.001774,98.000122 58.016289,97.966080 57.670319,98.002495 
	C55.131783,98.706650 52.939220,99.374390 50.461567,99.988434 
	C49.988770,99.888130 49.801067,99.841515 49.613369,99.794899 
z"/>
<path fill="#FEAC30" opacity="1.000000" stroke="none" 
	d="
M113.993210,95.962395 
	C112.870735,97.217453 111.748253,98.472519 110.267670,99.536667 
	C107.804558,98.271156 104.789520,98.532700 102.955719,100.211502 
	C102.883041,100.649002 102.839691,100.821426 102.796349,100.993858 
	C93.614075,101.917847 84.435249,102.878609 75.247231,103.741425 
	C72.776192,103.973473 70.277184,103.907684 67.388153,103.551216 
	C66.821785,101.468117 66.658287,99.812408 66.494781,98.156708 
	C81.680077,96.436852 96.865364,94.717003 112.383369,93.285080 
	C113.141792,94.369476 113.567505,95.165932 113.993210,95.962395 
z"/>
<path fill="#421904" opacity="1.000000" stroke="none" 
	d="
M66.316895,97.862915 
	C66.658287,99.812408 66.821785,101.468117 66.925980,103.536728 
	C65.460823,104.189545 64.054985,104.429451 61.983917,104.658974 
	C58.067688,103.483681 58.058784,100.716583 58.016289,97.966080 
	C58.016289,97.966080 58.001774,98.000122 58.289318,98.112877 
	C58.813751,97.881752 59.050640,97.537872 59.287529,97.193993 
	C61.571358,97.319031 63.855186,97.444069 66.316895,97.862915 
z"/>
<path fill="#E69C28" opacity="1.000000" stroke="none" 
	d="
M114.149384,95.634178 
	C113.567505,95.165932 113.141792,94.369476 112.823746,93.282555 
	C113.070702,92.264717 113.209991,91.537338 113.349281,90.809959 
	C113.708366,91.063118 114.067459,91.316269 114.670860,91.648491 
	C114.711967,92.920364 114.508759,94.113167 114.149384,95.634178 
z"/>
<path fill="#DB9326" opacity="1.000000" stroke="none" 
	d="
M59.013931,97.114273 
	C59.050640,97.537872 58.813751,97.881752 58.274025,98.123299 
	C57.940994,97.832710 57.910801,97.644447 58.027607,97.210831 
	C58.363182,96.988510 58.551758,97.011536 59.013931,97.114273 
z"/>
<path fill="#3B1303" opacity="1.000000" stroke="none" 
	d="
M53.921486,112.320389 
	C53.507740,110.587379 53.347141,109.166718 53.422813,107.207687 
	C56.928627,101.793777 59.054707,105.898323 61.478477,107.664978 
	C61.652390,108.853706 61.826305,110.042435 61.920242,111.586487 
	C59.285061,112.172112 56.729847,112.402420 53.921486,112.320389 
z"/>
<path fill="#DB9326" opacity="1.000000" stroke="none" 
	d="
M61.635658,107.220474 
	C59.054707,105.898323 56.928627,101.793777 53.381424,106.841812 
	C52.898716,107.002998 52.693665,106.991684 52.299599,106.598694 
	C53.410019,103.771286 53.989628,101.484535 50.746658,100.042130 
	C52.939220,99.374390 55.131783,98.706650 57.670319,98.002495 
	C58.058784,100.716583 58.067688,103.483681 61.647018,104.777969 
	C61.914516,105.530220 61.853676,106.153099 61.635658,107.220474 
z"/>
<path fill="#703B12" opacity="1.000000" stroke="none" 
	d="
M102.850723,101.366333 
	C102.839691,100.821426 102.883041,100.649002 103.355553,100.198273 
	C104.187370,101.312035 104.590027,102.704086 105.010612,104.394821 
	C105.035942,105.091660 105.043343,105.489822 105.050735,105.887978 
	C104.867180,105.932953 104.683617,105.977921 104.216431,106.021439 
	C103.590240,104.592918 103.247673,103.165863 102.850723,101.366333 
z"/>
<path fill="#D78137" opacity="1.000000" stroke="none" 
	d="
M116.980515,107.009521 
	C118.083839,108.635101 119.187164,110.260681 120.609695,111.964233 
	C118.729591,115.780212 115.446266,113.619041 112.281647,113.289719 
	C112.751465,111.198944 113.492775,109.399765 114.493530,107.298157 
	C115.495483,107.000320 116.237999,107.004921 116.980515,107.009521 
z"/>
<path fill="#FDA33A" opacity="1.000000" stroke="none" 
	d="
M117.320267,106.973755 
	C116.237999,107.004921 115.495483,107.000320 114.381866,107.007202 
	C112.518333,106.047310 111.025887,105.075928 109.192520,104.175430 
	C108.851608,104.246315 108.798615,104.247780 108.854858,103.887497 
	C109.266754,102.682434 109.622421,101.837662 109.978081,100.992882 
	C114.288582,100.841850 118.599075,100.690819 123.261803,101.144241 
	C123.575539,102.511002 123.537048,103.273308 123.498550,104.035614 
	C121.552376,105.003082 119.606201,105.970535 117.320267,106.973755 
z"/>
<path fill="#300B00" opacity="1.000000" stroke="none" 
	d="
M105.420586,105.931839 
	C105.043343,105.489822 105.035942,105.091660 105.380646,104.509384 
	C106.754700,104.299431 107.776657,104.273605 108.798615,104.247780 
	C108.798615,104.247780 108.851608,104.246315 108.834213,104.226463 
	C107.808029,104.796310 106.799232,105.386009 105.420586,105.931839 
z"/>
<path fill="#E79531" opacity="1.000000" stroke="none" 
	d="
M108.854858,103.887497 
	C107.776657,104.273605 106.754700,104.299431 105.362717,104.210701 
	C104.590027,102.704086 104.187370,101.312035 103.384880,99.933205 
	C104.789520,98.532700 107.804558,98.271156 109.957947,99.671829 
	C110.006348,99.997910 109.993378,100.495476 109.985733,100.744179 
	C109.622421,101.837662 109.266754,102.682434 108.854858,103.887497 
z"/>
<path fill="#64310F" opacity="1.000000" stroke="none" 
	d="
M123.979935,104.207909 
	C123.537048,103.273308 123.575539,102.511002 123.571609,101.356331 
	C124.400314,100.824104 125.271431,100.684235 126.591522,100.524414 
	C127.744736,102.837151 127.401733,104.472931 123.979935,104.207909 
z"/>
<path fill="#401804" opacity="1.000000" stroke="none" 
	d="
M50.461567,99.988434 
	C53.989628,101.484535 53.410019,103.771286 51.992668,106.572556 
	C49.699959,107.164574 47.525173,107.401062 45.140495,107.321556 
	C44.755878,105.874100 44.581154,104.742630 44.241989,103.304810 
	C43.790703,99.176544 46.755043,100.082764 49.229843,99.757103 
	C49.801067,99.841515 49.988770,99.888130 50.461567,99.988434 
z"/>
<path fill="#361106" opacity="1.000000" stroke="none" 
	d="
M33.325943,126.520325 
	C33.087879,126.516022 32.730125,126.286377 32.630402,125.976242 
	C32.994370,126.028824 33.100311,126.161903 33.325943,126.520325 
z"/>
<path fill="#361106" opacity="1.000000" stroke="none" 
	d="
M138.819702,126.260666 
	C139.272385,126.081322 139.597351,126.224442 139.948502,126.649467 
	C139.547119,126.815292 139.119537,126.699219 138.819702,126.260666 
z"/>
</svg>