<?xml version="1.0" encoding="utf-8"?>
<!-- Generator: Adobe Illustrator 24.0.0, SVG Export Plug-In . SVG Version: 6.00 Build 0)  -->
<svg version="1.1" id="Layer_1" xmlns="http://www.w3.org/2000/svg" xmlns:xlink="http://www.w3.org/1999/xlink" x="0px" y="0px"
	 viewBox="0 0 256 256" enable-background="new 0 0 256 256" xml:space="preserve">
<g>
	<path fill="#CECECE" d="M32.035,210.928c-7.535,0-13.665-6.13-13.665-13.665V73.487c0-7.535,6.13-13.665,13.665-13.665h191.931
		c7.535,0,13.665,6.13,13.665,13.665v123.776c0,7.535-6.13,13.665-13.665,13.665H32.035z"/>
	<g>
		<path fill="#E2E2E2" d="M223.965,59.822h-14.667c7.534,0,13.665,6.13,13.665,13.665v123.776c0,7.534-6.13,13.665-13.665,13.665
			h14.667c7.535,0,13.665-6.13,13.665-13.665V73.487C237.63,65.953,231.5,59.822,223.965,59.822z"/>
	</g>
	<g>
		<path fill="#AFAFAF" d="M32.035,59.822h14.667c-7.534,0-13.665,6.13-13.665,13.665v123.776c0,7.534,6.13,13.665,13.665,13.665
			H32.035c-7.535,0-13.665-6.13-13.665-13.665V73.487C18.37,65.953,24.5,59.822,32.035,59.822z"/>
	</g>
	<path fill="#63BCE7" d="M229.221,73.511v123.728c0,2.916-2.364,5.28-5.28,5.28H32.059c-2.916,0-5.28-2.364-5.28-5.28V73.511
		c0-2.916,2.364-5.28,5.28-5.28h191.882C226.857,68.231,229.221,70.595,229.221,73.511z"/>
	<g>
		<path fill="#63E2E7" d="M223.941,68.231h-14.667c2.916,0,5.28,2.364,5.28,5.28v123.728c0,2.916-2.364,5.28-5.28,5.28h14.667
			c2.916,0,5.28-2.364,5.28-5.28V73.511C229.221,70.595,226.857,68.231,223.941,68.231z"/>
	</g>
	<g>
		<path fill="#6377E7" d="M32.059,68.231h14.667c-2.916,0-5.28,2.364-5.28,5.28v123.728c0,2.916,2.364,5.28,5.28,5.28H32.059
			c-2.916,0-5.28-2.364-5.28-5.28V73.511C26.779,70.595,29.143,68.231,32.059,68.231z"/>
	</g>
	<path fill="#CECECE" d="M128,210.928H8.667l3.053,7.024c2.751,6.329,8.995,10.423,15.896,10.423H128h100.385
		c6.901,0,13.145-4.094,15.896-10.423l3.053-7.024H128z"/>
	<g>
		<path fill="#E2E2E2" d="M232.667,210.928l-3.053,7.024c-2.751,6.329-8.995,10.423-15.896,10.423h14.667
			c6.901,0,13.145-4.094,15.896-10.423l3.053-7.024H232.667z"/>
	</g>
	<g>
		<path fill="#AFAFAF" d="M23.333,210.928l3.053,7.024c2.751,6.329,8.995,10.423,15.896,10.423H27.615
			c-6.901,0-13.145-4.094-15.896-10.423l-3.053-7.024H23.333z"/>
	</g>
	<path fill="#707070" d="M82.442,210.928l4.22,5.388c1.649,2.106,4.175,3.336,6.85,3.336h68.975c2.675,0,5.201-1.23,6.85-3.336
		l4.221-5.388H82.442z"/>
	<g>
		<g>
			<circle fill="#F8AF23" cx="45.708" cy="85.518" r="5.25"/>
			<circle fill="#F8AF23" cx="64.348" cy="85.518" r="5.25"/>
			<circle fill="#F8AF23" cx="82.989" cy="85.518" r="5.25"/>
		</g>
		<rect x="66.016" y="97.893" fill="#63BCE7" width="123.968" height="72.927"/>
		<polygon fill="#F46275" points="114.163,109.71 151.075,135.432 114.163,161.155 		"/>
	</g>
	<path fill="#F8AF23" d="M182.624,68.231H73.376c-2.761,0-5-2.239-5-5V21.652c0-2.761,2.239-5,5-5h109.248c2.761,0,5,2.239,5,5
		v41.579C187.624,65.993,185.385,68.231,182.624,68.231z"/>
	<g>
		<path fill="#F87023" d="M83.043,63.231V21.652c0-2.761,2.239-5,5-5H73.376c-2.761,0-5,2.239-5,5v41.579c0,2.761,2.239,5,5,5
			h14.667C85.281,68.231,83.043,65.993,83.043,63.231z"/>
	</g>
	<g>
		<path fill="#F8D323" d="M172.957,63.231V21.652c0-2.761-2.239-5-5-5h14.667c2.761,0,5,2.239,5,5v41.579c0,2.761-2.239,5-5,5
			h-14.667C170.719,68.231,172.957,65.993,172.957,63.231z"/>
	</g>
	<g>
		<path fill="#3F3679" d="M245.656,218.55l3.053-7.024c0.202-0.463,0.156-0.998-0.121-1.42c-0.277-0.422-0.749-0.677-1.254-0.677
			h-14.352c3.722-2.766,6.149-7.182,6.149-12.165V73.487c0-8.362-6.803-15.165-15.165-15.165h-34.841v-36.67
			c0-3.584-2.916-6.5-6.5-6.5H73.376c-3.584,0-6.5,2.916-6.5,6.5v36.67H32.035c-8.362,0-15.165,6.803-15.165,15.165v123.776
			c0,4.983,2.427,9.399,6.149,12.165H8.667c-0.505,0-0.977,0.255-1.254,0.678c-0.277,0.422-0.323,0.957-0.121,1.42l3.053,7.024
			c1.517,3.491,4.013,6.351,7.08,8.325H9.32c-0.829,0-1.5,0.671-1.5,1.5s0.671,1.5,1.5,1.5h18.295h200.77h18.295
			c0.829,0,1.5-0.671,1.5-1.5s-0.671-1.5-1.5-1.5h-8.104C241.644,224.901,244.139,222.041,245.656,218.55z M171.511,99.393h16.973
			v69.926H67.516V99.393H171.511z M227.721,169.319h-36.237V99.393h36.237V169.319z M64.516,169.319H28.279V99.393h36.237V169.319z
			 M28.279,172.319h37.737h123.968h37.737v24.92c0,2.084-1.696,3.78-3.78,3.78H32.059c-2.084,0-3.78-1.696-3.78-3.78V172.319z
			 M227.721,96.393h-37.737h-18.473H66.016H28.279V73.511c0-2.084,1.696-3.78,3.78-3.78h191.882c2.084,0,3.78,1.696,3.78,3.78
			V96.393z M69.876,21.652c0-1.93,1.57-3.5,3.5-3.5h109.248c1.93,0,3.5,1.57,3.5,3.5v41.579c0,1.93-1.57,3.5-3.5,3.5H73.376
			c-1.93,0-3.5-1.57-3.5-3.5V21.652z M19.87,197.264V73.487c0-6.708,5.457-12.165,12.165-12.165h34.841v1.909
			c0,1.289,0.382,2.489,1.032,3.5H32.059c-3.739,0-6.78,3.042-6.78,6.78v123.728c0,3.738,3.042,6.78,6.78,6.78h191.882
			c3.739,0,6.78-3.042,6.78-6.78V73.511c0-3.738-3.042-6.78-6.78-6.78h-35.849c0.65-1.012,1.032-2.211,1.032-3.5v-1.909h34.841
			c6.708,0,12.165,5.457,12.165,12.165v123.776c0,6.708-5.457,12.165-12.165,12.165h-50.407H82.442H32.035
			C25.327,209.428,19.87,203.971,19.87,197.264z M170.478,212.428l-2.321,2.963c-1.375,1.754-3.441,2.76-5.669,2.76H93.513
			c-2.229,0-4.295-1.006-5.669-2.76l-2.321-2.963H170.478z M228.385,226.875H27.615c-4.787,0-9.22-2.157-12.18-5.724h29.14
			c0.829,0,1.5-0.671,1.5-1.5s-0.671-1.5-1.5-1.5H13.478c-0.132-0.263-0.264-0.526-0.382-0.798l-2.141-4.926h21.081h49.677
			l3.77,4.813c1.947,2.485,4.874,3.911,8.031,3.911h68.975c3.157,0,6.084-1.425,8.031-3.911l3.77-4.813h49.677h21.081l-2.141,4.926
			c-0.118,0.272-0.25,0.535-0.382,0.798h-31.099c-0.829,0-1.5,0.671-1.5,1.5s0.671,1.5,1.5,1.5h29.141
			C237.605,224.719,233.172,226.875,228.385,226.875z"/>
		<path fill="#3F3679" d="M65.22,218.152H54.845c-0.829,0-1.5,0.671-1.5,1.5s0.671,1.5,1.5,1.5H65.22c0.829,0,1.5-0.671,1.5-1.5
			S66.048,218.152,65.22,218.152z"/>
		<path fill="#3F3679" d="M201.155,218.152H190.78c-0.829,0-1.5,0.671-1.5,1.5s0.671,1.5,1.5,1.5h10.375c0.829,0,1.5-0.671,1.5-1.5
			S201.984,218.152,201.155,218.152z"/>
		<path fill="#3F3679" d="M27.323,237.848H9.32c-0.829,0-1.5,0.671-1.5,1.5s0.671,1.5,1.5,1.5h18.003c0.829,0,1.5-0.671,1.5-1.5
			S28.152,237.848,27.323,237.848z"/>
		<path fill="#3F3679" d="M246.68,237.848h-18.003c-0.829,0-1.5,0.671-1.5,1.5s0.671,1.5,1.5,1.5h18.003c0.829,0,1.5-0.671,1.5-1.5
			S247.509,237.848,246.68,237.848z"/>
		<path fill="#3F3679" d="M218.479,237.848H37.521c-0.829,0-1.5,0.671-1.5,1.5s0.671,1.5,1.5,1.5h180.959c0.829,0,1.5-0.671,1.5-1.5
			S219.308,237.848,218.479,237.848z"/>
		<path fill="#3F3679" d="M45.708,78.768c-3.722,0-6.75,3.028-6.75,6.75s3.028,6.75,6.75,6.75s6.75-3.028,6.75-6.75
			S49.43,78.768,45.708,78.768z M45.708,89.268c-2.068,0-3.75-1.682-3.75-3.75s1.682-3.75,3.75-3.75s3.75,1.682,3.75,3.75
			S47.775,89.268,45.708,89.268z"/>
		<path fill="#3F3679" d="M64.349,78.768c-3.722,0-6.75,3.028-6.75,6.75s3.028,6.75,6.75,6.75s6.75-3.028,6.75-6.75
			S68.071,78.768,64.349,78.768z M64.349,89.268c-2.068,0-3.75-1.682-3.75-3.75s1.682-3.75,3.75-3.75s3.75,1.682,3.75,3.75
			S66.417,89.268,64.349,89.268z"/>
		<path fill="#3F3679" d="M82.989,78.768c-3.722,0-6.75,3.028-6.75,6.75s3.028,6.75,6.75,6.75s6.75-3.028,6.75-6.75
			S86.711,78.768,82.989,78.768z M82.989,89.268c-2.068,0-3.75-1.682-3.75-3.75s1.682-3.75,3.75-3.75s3.75,1.682,3.75,3.75
			S85.057,89.268,82.989,89.268z"/>
		<path fill="#3F3679" d="M47,195.736c0.829,0,1.5-0.671,1.5-1.5v-14.5c0-0.829-0.671-1.5-1.5-1.5s-1.5,0.671-1.5,1.5v14.5
			C45.5,195.064,46.171,195.736,47,195.736z"/>
		<path fill="#3F3679" d="M59,195.736c0.829,0,1.5-0.671,1.5-1.5v-14.5c0-0.829-0.671-1.5-1.5-1.5s-1.5,0.671-1.5,1.5v14.5
			C57.5,195.064,58.171,195.736,59,195.736z"/>
		<path fill="#3F3679" d="M72.25,188.486H91.5v3.75c0,0.829,0.671,1.5,1.5,1.5s1.5-0.671,1.5-1.5v-3.75h110
			c0.829,0,1.5-0.671,1.5-1.5s-0.671-1.5-1.5-1.5h-110v-3.75c0-0.829-0.671-1.5-1.5-1.5s-1.5,0.671-1.5,1.5v3.75H72.25
			c-0.829,0-1.5,0.671-1.5,1.5S71.421,188.486,72.25,188.486z"/>
		<path fill="#3F3679" d="M113.469,162.484c0.219,0.114,0.457,0.17,0.694,0.17c0.301,0,0.601-0.091,0.857-0.27l36.912-25.723
			c0.403-0.28,0.643-0.74,0.643-1.23s-0.24-0.95-0.643-1.23l-36.912-25.723c-0.458-0.32-1.057-0.359-1.552-0.099
			c-0.495,0.258-0.806,0.771-0.806,1.33v51.445C112.663,161.713,112.974,162.226,113.469,162.484z M115.663,112.583l32.789,22.849
			l-32.789,22.849V112.583z"/>
	</g>
	<g>
		<path fill="#3F3679" d="M103.752,49.583h4.717c0.719,0,1.301,0.583,1.301,1.301v1.602c0,0.719-0.583,1.301-1.301,1.301H98.264
			c-0.719,0-1.301-0.583-1.301-1.301v-20.09c0-0.719,0.583-1.301,1.301-1.301h2.886c0.719,0,1.301,0.583,1.301,1.301v15.886
			C102.451,49.001,103.033,49.583,103.752,49.583z"/>
		<path fill="#3F3679" d="M117.793,32.396v20.09c0,0.719-0.583,1.301-1.301,1.301h-2.886c-0.719,0-1.301-0.583-1.301-1.301v-20.09
			c0-0.719,0.583-1.301,1.301-1.301h2.886C117.21,31.095,117.793,31.678,117.793,32.396z"/>
		<path fill="#3F3679" d="M126.109,31.994l4.023,12.371c0.39,1.198,2.085,1.198,2.475,0l4.022-12.371
			c0.174-0.536,0.674-0.899,1.237-0.899h3.099c0.895,0,1.523,0.883,1.229,1.729l-6.991,20.09c-0.182,0.523-0.675,0.874-1.229,0.874
			h-5.242c-0.554,0-1.048-0.351-1.229-0.875l-6.962-20.09c-0.293-0.845,0.335-1.727,1.229-1.727h3.1
			C125.435,31.095,125.935,31.458,126.109,31.994z"/>
		<path fill="#3F3679" d="M150.403,36.761v2.148c0,0.719,0.583,1.301,1.301,1.301h5.069c0.719,0,1.301,0.583,1.301,1.301v1.539
			c0,0.719-0.583,1.301-1.301,1.301h-5.069c-0.719,0-1.301,0.583-1.301,1.301v2.436c0,0.719,0.583,1.301,1.301,1.301h6.032
			c0.719,0,1.301,0.583,1.301,1.301v1.795c0,0.719-0.583,1.301-1.301,1.301h-11.52c-0.719,0-1.301-0.583-1.301-1.301v-20.09
			c0-0.719,0.583-1.301,1.301-1.301h11.52c0.719,0,1.301,0.583,1.301,1.301v1.762c0,0.719-0.583,1.301-1.301,1.301h-6.032
			C150.986,35.46,150.403,36.042,150.403,36.761z"/>
	</g>
</g>
</svg>
